<?xml version="1.0" encoding="utf-8"?>
<!-- Generator: Adobe Illustrator 24.3.0, SVG Export Plug-In . SVG Version: 6.00 Build 0)  -->
<svg version="1.1" id="Layer_1" xmlns="http://www.w3.org/2000/svg" xmlns:xlink="http://www.w3.org/1999/xlink" x="0px" y="0px"
	 viewBox="0 0 31.9 32" style="enable-background:new 0 0 31.9 32;" xml:space="preserve">
<style type="text/css">
	.st0{fill:none;}
	.st1{fill:#0090AC;}
	.st2{fill:#1B1E3A;}
	.st3{fill:#1A1F39;}
</style>
<g>
	<polygon class="st0" points="8.6,24.2 16.5,16.2 8.6,16.2 	"/>
	<polygon class="st0" points="8.6,14.1 18.7,14.1 26,6.8 8.6,6.8 	"/>
	<path class="st0" d="M21.7,9.6H18v6.6h3.7c1.5,0,2.5-0.3,3.2-0.8c0.7-0.5,1.1-1.3,1.1-2.4C25.8,10.6,24.5,9.6,21.7,9.6z"/>
	<path class="st0" d="M16,11.2h-3.7v6.6H16c1.5,0,2.5-0.3,3.2-0.8c0.7-0.5,1.1-1.3,1.1-2.4C20.3,12.4,18.8,11.2,16,11.2z"/>
	<g>
		<path class="st1" d="M20.5,11.6c-1.2-1.2-3-1.7-5.3-1.7h-4v2.3h4c2.9,0,4.4,1.3,4.4,3.8c0,1.2-0.4,2.1-1.1,2.8
			c-0.7,0.7-1.9,0.9-3.3,0.9h-1.7l-2.3,2.3h4c2.4,0,4.2-0.5,5.4-1.7s1.7-2.5,1.7-4.2C22.4,14.2,21.7,12.8,20.5,11.6z"/>
	</g>
	<line class="st0" x1="27.8" y1="4.7" x2="7.5" y2="25.1"/>
	<line class="st0" x1="33.2" y1="1.9" x2="11.8" y2="23.4"/>
	<g>
		<g>
			<g>
				<rect x="6.5" y="4.7" class="st2" width="2.1" height="2.1"/>
			</g>
		</g>
	</g>
	<g>
		<g>
			<g>
				<g>
					<rect x="6.6" y="14.1" class="st2" width="2" height="2.3"/>
				</g>
			</g>
		</g>
	</g>
	<g>
		<g>
			<g>
				<polygon class="st3" points="6.6,16.2 6.6,14.1 8.6,14.1 8.6,6.8 6.5,6.8 6.5,26.3 6.5,26.3 8.6,24.2 8.6,16.2 				"/>
			</g>
		</g>
		<g>
			<g>
				<g>
					<g>
						<polygon class="st3" points="8.6,6.8 26,6.8 28.1,4.7 6.5,4.7 6.5,4.7 8.6,4.7 						"/>
					</g>
				</g>
			</g>
		</g>
	</g>
	<polygon class="st2" points="8.6,14.1 8.6,16.2 16.5,16.2 18.7,14.1 	"/>
	<path class="st1" d="M2.8,19.7v-0.1V19.7z"/>
	<polygon class="st1" points="2.8,21.4 0.9,21.4 0.9,20.2 0.8,20.2 0.8,17.3 2.8,17.3 2.8,10.8 2.6,10.8 2.6,9.8 0.6,9.8 0.6,32.1 
		2.8,30 	"/>
	<polygon class="st1" points="2.8,12.1 5.7,12.1 5.7,9.8 2.5,9.8 2.5,11.2 2.8,11.2 	"/>
	<rect x="2.6" y="11.2" class="st1" width="0.3" height="0.9"/>
	<polygon class="st1" points="2.8,18.1 2.8,18.1 2.8,19.5 	"/>
	<rect x="0.9" y="19.3" class="st1" width="2" height="2.3"/>
	<polygon class="st1" points="0.8,21.8 0.9,21.8 0.9,19.7 2.8,19.7 2.8,19.5 2.8,17 0.8,17 	"/>
	<rect x="9.2" y="9.8" class="st1" width="2.4" height="2.3"/>
	<rect x="6.5" y="6.7" class="st3" width="2.1" height="0.3"/>
</g>
</svg>
