<?xml version="1.0" encoding="utf-8"?>
<!-- Generator: Adobe Illustrator 24.3.0, SVG Export Plug-In . SVG Version: 6.00 Build 0)  -->
<svg version="1.1" id="Layer_1" xmlns="http://www.w3.org/2000/svg" xmlns:xlink="http://www.w3.org/1999/xlink" 
x="0px" y="0px"
	 viewBox="0 0 811 256.9" style="enable-background:new 0 0 811 256.9;" xml:space="preserve">
<style type="text/css">
	.st0{fill:#008EAA;}
	.st1{fill:#111111;}
</style>
<g>
	<g>
		<path class="st0" d="M629.9,171c-0.1-0.3-0.2-0.5-0.5-0.7c-0.8-0.6-1.7-1.1-2.8-1.5c-1.1-0.4-2.2-0.5-3.4-0.5
			c-1.7,0-3.2,0.3-4.5,0.9c-1.3,0.6-2.5,1.5-3.4,2.5c-0.9,1.1-1.7,2.3-2.1,3.8c-0.5,1.5-0.7,3-0.7,4.7c0,2.1,0.4,3.8,1.2,5.2
			c0.8,1.4,1.8,2.4,3.2,3.1c1.4,0.7,3,1,4.8,1c1.1,0,2.2-0.2,3.2-0.5c1.1-0.3,2-0.8,2.9-1.5c0.3-0.2,0.4-0.4,0.5-0.7
			c0.1-0.2,0.1-0.5,0-0.7c-0.1-0.2-0.2-0.4-0.4-0.6c-0.2-0.2-0.4-0.3-0.6-0.3c-0.2,0-0.5,0.1-0.8,0.3c-0.8,0.6-1.5,1-2.3,1.2
			c-0.8,0.2-1.6,0.4-2.4,0.4c-1.4,0-2.5-0.2-3.5-0.7c-1-0.5-1.7-1.2-2.2-2.2c-0.5-1-0.7-2.4-0.7-4c0-1.8,0.3-3.4,0.9-4.9
			c0.6-1.4,1.5-2.5,2.7-3.3c1.2-0.8,2.6-1.2,4.2-1.2c0.9,0,1.8,0.1,2.6,0.4c0.8,0.3,1.6,0.7,2.4,1.3c0.3,0.2,0.5,0.3,0.8,0.3
			c0.3,0,0.5-0.1,0.6-0.3c0.2-0.2,0.3-0.4,0.4-0.6C630,171.5,630,171.2,629.9,171z"/>
		<path class="st0" d="M643.5,177.6c-0.5-0.9-1.2-1.7-2.2-2.2c-0.9-0.5-2.1-0.8-3.4-0.8c-1.1,0-2.1,0.2-3.1,0.6
			c-0.9,0.4-1.7,1-2.4,1.8c-0.7,0.8-1.2,1.7-1.6,2.7c-0.4,1-0.5,2.2-0.5,3.4c0,1.3,0.3,2.4,0.7,3.4c0.5,1,1.2,1.7,2.2,2.2
			c0.9,0.5,2.1,0.8,3.4,0.8c1.1,0,2.2-0.2,3.1-0.6c0.9-0.4,1.7-1,2.4-1.8c0.7-0.8,1.2-1.7,1.6-2.7c0.4-1.1,0.6-2.2,0.6-3.4
			C644.3,179.7,644,178.6,643.5,177.6z M641,184.2c-0.4,1-0.9,1.8-1.7,2.4c-0.7,0.6-1.6,0.9-2.6,0.9c-1.2,0-2.1-0.3-2.7-1.1
			c-0.7-0.7-1-1.7-1-3.1c0-1.2,0.2-2.3,0.5-3.3c0.4-1,0.9-1.7,1.7-2.3c0.7-0.6,1.6-0.9,2.6-0.9c1.2,0,2.1,0.4,2.7,1.1
			c0.7,0.7,1,1.7,1,3.1C641.6,182.1,641.4,183.2,641,184.2z"/>
		<path class="st0" d="M660.4,177.3c-0.3-0.9-0.8-1.5-1.5-2c-0.7-0.4-1.6-0.6-2.7-0.6c-1.3,0-2.4,0.3-3.4,0.9
			c-0.7,0.5-1.3,1.1-1.8,1.9l0.2-1.2c0.1-0.5,0-0.9-0.1-1.1c-0.2-0.2-0.5-0.4-0.9-0.4c-0.4,0-0.8,0.1-1,0.3c-0.3,0.2-0.4,0.5-0.5,1
			l-1.9,11.8c-0.1,0.5,0,0.9,0.2,1.2c0.2,0.3,0.5,0.4,0.9,0.4c0.9,0,1.4-0.4,1.5-1.3l1.1-6.6c0.2-1.4,0.7-2.6,1.5-3.4
			c0.8-0.8,1.9-1.3,3.3-1.3c1.1,0,1.8,0.3,2.2,0.9c0.4,0.6,0.5,1.6,0.3,2.8l-1.2,7.3c-0.1,0.5,0,0.9,0.2,1.2
			c0.2,0.3,0.5,0.4,0.9,0.4c0.4,0,0.8-0.1,1.1-0.3c0.3-0.2,0.4-0.5,0.5-1l1.2-7.5C660.7,179.3,660.7,178.1,660.4,177.3z"/>
		<path class="st0" d="M675.3,176.5c-0.1-0.2-0.3-0.4-0.5-0.6c-0.6-0.4-1.2-0.7-2-0.9c-0.8-0.2-1.6-0.3-2.4-0.3
			c-1.2,0-2.3,0.2-3.2,0.6c-0.9,0.4-1.6,0.9-2.1,1.6c-0.5,0.7-0.7,1.5-0.7,2.3c0,0.9,0.3,1.7,0.9,2.3c0.6,0.6,1.3,1.1,2.4,1.3
			l2.8,0.7c0.6,0.1,1,0.4,1.4,0.7c0.3,0.3,0.5,0.7,0.5,1.2c0,0.7-0.3,1.3-0.9,1.7c-0.6,0.4-1.4,0.6-2.4,0.6c-0.7,0-1.4-0.1-2.1-0.3
			c-0.7-0.2-1.3-0.4-2-0.8c-0.3-0.2-0.5-0.2-0.8-0.2c-0.2,0-0.4,0.1-0.5,0.3c-0.1,0.2-0.2,0.3-0.3,0.6c0,0.2,0,0.4,0.1,0.6
			c0.1,0.2,0.3,0.4,0.6,0.6c0.6,0.4,1.3,0.6,2.2,0.9c0.9,0.2,1.8,0.3,2.7,0.3c1.7,0,3.1-0.4,4.2-1.2c1.1-0.8,1.6-1.9,1.6-3.3
			c0-0.9-0.3-1.7-0.9-2.2c-0.6-0.6-1.4-1-2.5-1.3l-2.8-0.7c-0.6-0.1-1-0.4-1.3-0.7c-0.3-0.3-0.4-0.7-0.4-1.1c0-0.7,0.3-1.3,0.9-1.7
			c0.6-0.4,1.4-0.7,2.5-0.7c0.7,0,1.3,0.1,1.9,0.3c0.6,0.2,1.2,0.4,1.6,0.8c0.3,0.2,0.5,0.3,0.8,0.2c0.2,0,0.4-0.1,0.5-0.2
			c0.1-0.1,0.2-0.3,0.3-0.5C675.5,177,675.4,176.7,675.3,176.5z"/>
		<path class="st0" d="M691.8,175.1c-0.2-0.3-0.5-0.4-1-0.4c-0.4,0-0.7,0.1-1,0.3c-0.3,0.2-0.4,0.5-0.5,1l-1.1,6.7
			c-0.2,1.4-0.7,2.5-1.5,3.4c-0.8,0.8-1.9,1.3-3.2,1.3c-1,0-1.7-0.3-2.1-0.9c-0.4-0.6-0.5-1.6-0.3-2.9l1.1-7.3
			c0.1-0.5,0-0.9-0.2-1.1c-0.2-0.3-0.5-0.4-1-0.4c-0.4,0-0.7,0.1-1,0.3c-0.2,0.2-0.4,0.5-0.5,1l-1.2,7.6c-0.2,1.4-0.1,2.5,0.1,3.4
			c0.3,0.9,0.8,1.5,1.5,2c0.7,0.4,1.6,0.6,2.6,0.6c1.2,0,2.4-0.3,3.3-0.9c0.7-0.4,1.3-1,1.7-1.7l-0.2,1.2c-0.1,0.5,0,0.8,0.2,1.1
			c0.2,0.3,0.5,0.4,0.9,0.4c0.8,0,1.3-0.4,1.5-1.3l1.9-12C692.1,175.7,692,175.4,691.8,175.1z"/>
		<path class="st0" d="M700.9,187.4c-0.1-0.1-0.2-0.1-0.4-0.1c-0.1,0-0.2,0-0.4,0.1c-0.1,0-0.4,0-0.6,0c-0.8,0-1.3-0.2-1.6-0.7
			c-0.3-0.4-0.4-1.2-0.2-2.2l2.3-14.6c0.1-0.5,0-0.9-0.2-1.2c-0.2-0.3-0.5-0.4-0.9-0.4c-0.4,0-0.8,0.1-1.1,0.3
			c-0.3,0.2-0.4,0.5-0.5,1l-2.4,14.9c-0.3,1.6-0.1,2.9,0.6,3.7c0.7,0.9,1.7,1.3,3.2,1.3c0.2,0,0.4,0,0.6,0c0.3,0,0.4-0.1,0.6-0.1
			c0.3-0.1,0.5-0.2,0.7-0.4c0.2-0.2,0.3-0.5,0.3-1C701,187.7,701,187.5,700.9,187.4z"/>
		<path class="st0" d="M712.7,175.2c-0.2-0.1-0.5-0.2-0.9-0.2h-3.4l0.5-3.1c0.1-0.5,0-0.9-0.2-1.1c-0.2-0.3-0.5-0.4-1-0.4
			c-0.4,0-0.8,0.1-1,0.3c-0.2,0.2-0.4,0.5-0.5,1l-0.5,3.3H704c-0.4,0-0.7,0.1-1,0.3c-0.3,0.2-0.4,0.5-0.4,0.9c0,0.3,0.1,0.5,0.3,0.6
			c0.2,0.1,0.5,0.2,0.8,0.2h1.7l-1.1,7.3c-0.2,1.1-0.1,2,0.2,2.8c0.3,0.8,0.8,1.4,1.6,1.9c0.8,0.4,1.7,0.7,2.8,0.7
			c0.3,0,0.6,0,0.9-0.1c0.3-0.1,0.6-0.1,0.8-0.2c0.3-0.1,0.5-0.2,0.7-0.4c0.1-0.2,0.2-0.5,0.2-1c0-0.3-0.1-0.5-0.2-0.6
			c-0.1-0.1-0.3-0.2-0.5-0.2c-0.2,0-0.4,0-0.6,0.1c-0.2,0.1-0.5,0.1-1,0.1c-0.9,0-1.5-0.3-2-0.7c-0.4-0.5-0.5-1.3-0.3-2.5l1.1-7h3.6
			c0.4,0,0.7-0.1,0.9-0.3c0.3-0.2,0.4-0.5,0.4-0.9C713,175.5,712.9,175.3,712.7,175.2z"/>
		<path class="st0" d="M718.1,175.2c-0.2-0.3-0.5-0.4-0.9-0.4c-0.4,0-0.8,0.1-1.1,0.3c-0.3,0.2-0.4,0.5-0.5,1l-1.9,11.9
			c-0.1,0.5,0,0.9,0.2,1.2c0.2,0.3,0.5,0.4,0.9,0.4c0.4,0,0.8-0.1,1.1-0.3c0.3-0.2,0.4-0.5,0.5-1l1.9-11.9
			C718.4,175.8,718.3,175.4,718.1,175.2z M719.4,168.9c-0.3-0.3-0.7-0.4-1.2-0.4c-0.6,0-1,0.1-1.4,0.4c-0.3,0.3-0.5,0.7-0.6,1.3
			c0,0.4,0.1,0.8,0.4,1.1c0.3,0.3,0.6,0.4,1.1,0.4c0.6,0,1.1-0.1,1.4-0.4c0.3-0.3,0.5-0.7,0.6-1.3
			C719.8,169.5,719.6,169.1,719.4,168.9z"/>
		<path class="st0" d="M734.4,177.3c-0.3-0.9-0.8-1.5-1.5-2c-0.7-0.4-1.6-0.6-2.7-0.6c-1.3,0-2.4,0.3-3.4,0.9
			c-0.7,0.5-1.3,1.1-1.8,1.9l0.2-1.2c0.1-0.5,0-0.9-0.2-1.1c-0.2-0.2-0.5-0.4-0.9-0.4c-0.4,0-0.7,0.1-1,0.3c-0.3,0.2-0.4,0.5-0.5,1
			l-1.9,11.8c-0.1,0.5,0,0.9,0.2,1.2c0.2,0.3,0.5,0.4,0.9,0.4c0.9,0,1.4-0.4,1.5-1.3l1.1-6.6c0.2-1.4,0.7-2.6,1.6-3.4
			c0.8-0.8,1.9-1.3,3.3-1.3c1.1,0,1.8,0.3,2.2,0.9c0.4,0.6,0.5,1.6,0.3,2.8l-1.2,7.3c0,0.5,0,0.9,0.2,1.2c0.2,0.3,0.5,0.4,0.9,0.4
			c0.4,0,0.8-0.1,1.1-0.3c0.3-0.2,0.4-0.5,0.4-1l1.2-7.5C734.7,179.3,734.7,178.1,734.4,177.3z"/>
		<path class="st0" d="M752.3,175.2c-0.2-0.3-0.5-0.4-0.9-0.4c-0.4,0-0.7,0.1-1,0.3c-0.3,0.2-0.4,0.5-0.5,1l-0.3,1.6
			c-0.4-0.9-0.9-1.6-1.7-2.1c-0.9-0.6-1.9-0.9-3.1-0.9c-1.2,0-2.2,0.2-3,0.7c-0.9,0.5-1.7,1.1-2.3,1.9c-0.6,0.8-1.1,1.7-1.4,2.7
			c-0.3,1-0.5,2.1-0.5,3.2c0,1.2,0.2,2.2,0.7,3.1c0.5,0.9,1.1,1.6,2,2c0.9,0.5,1.9,0.7,3,0.7c1.2,0,2.2-0.3,3.2-0.8
			c0.7-0.4,1.3-1,1.8-1.7l-0.4,2.6c-0.2,1.3-0.7,2.2-1.5,2.9c-0.8,0.6-1.8,0.9-3,0.9c-0.9,0-1.6-0.1-2.4-0.4c-0.7-0.3-1.4-0.6-2.1-1
			c-0.3-0.2-0.5-0.2-0.7-0.2c-0.2,0-0.4,0.1-0.6,0.3c-0.2,0.2-0.3,0.3-0.3,0.5c0,0.2,0,0.4,0,0.6c0.1,0.2,0.2,0.4,0.5,0.6
			c0.8,0.5,1.7,0.9,2.7,1.2c1,0.3,2.1,0.5,3.2,0.5c2,0,3.5-0.5,4.6-1.5c1.1-1,1.8-2.5,2.1-4.5l2-12.5
			C752.5,175.8,752.5,175.4,752.3,175.2z M748.4,183.7c-0.4,0.9-0.9,1.7-1.6,2.3c-0.7,0.6-1.6,0.9-2.7,0.9c-1.2,0-2.1-0.3-2.8-1
			c-0.7-0.7-1-1.6-1-2.8c0-1.1,0.2-2.1,0.6-3c0.4-0.9,0.9-1.7,1.7-2.3c0.7-0.6,1.6-0.8,2.6-0.8c1.2,0,2.2,0.3,2.8,1
			c0.7,0.7,1,1.6,1,2.8C749,181.7,748.8,182.7,748.4,183.7z"/>
	</g>
	<path class="st1" d="M758.2,106.9c0-8.2-1.8-15.5-5.3-21.9c-3.5-6.5-8.6-11.6-15.1-15.3c-6.5-3.7-14-5.6-22.5-5.6
		c-8.7,0-16.4,1.9-23.1,5.6c-6.7,3.8-11.9,9.1-15.6,16.1c-1,1.9-1.8,3.8-2.5,5.8c-1.3,3.8-2.2,7.8-2.7,12.2c-0.2,2-0.3,4.2-0.3,6.4
		c0,9.2,1.9,17.4,5.7,24.4c3.8,7,9.1,12.4,15.7,16.2c6.7,3.8,14.3,5.7,22.8,5.7c10.7,0,19.6-2.7,26.8-8.1c7.2-5.4,12-12.4,14.3-21
		h-16c-1.7,5-4.7,9-9,12c-4.3,3-9.7,4.5-16.1,4.5c-7.8,0-14.5-2.5-20-7.4c-5.5-5-8.5-11.8-9.1-20.6h71.5
		C758,112.7,758.2,109.7,758.2,106.9z M686.4,103.8c0.4-4.6,1.5-8.7,3.3-12.2c1.5-3,3.4-5.5,5.8-7.7c5.3-4.8,11.6-7.2,19.2-7.2
		c5.2,0,10,1.1,14.3,3.2c4.3,2.1,7.7,5.2,10.2,9.3c0.5,0.8,0.9,1.6,1.3,2.4c1.7,3.5,2.5,7.6,2.5,12.2H686.4z"/>
	<path class="st1" d="M72.9,53.4h49.4V41.3H58V155h14.8v-51.2H113V91.7H72.9V53.4z"/>
	<path class="st1" d="M154.9,33.8c-1.9-2-4.2-2.9-7-2.9c-2.8,0-5.2,1-7.2,2.9c-2,2-2.9,4.3-2.9,7.2c0,2.8,1,5.2,2.9,7.2
		c1.9,1.9,4.3,2.9,7.2,2.9c2.7,0,5-1,7-2.9c1.9-2,2.8-4.3,2.8-7.2C157.7,38.2,156.7,35.8,154.9,33.8z M140.2,65.6V155h14.8V65.6
		H140.2z"/>
	<path class="st1" d="M259.5,91.6c-1.4-7.3-4.5-13.2-9.1-17.8c-6.7-6.6-15.5-9.8-26.4-9.8c-6.1,0-11.6,1.2-16.7,3.7
		c-5.1,2.5-9.1,6-12,10.6V65.6h-14.8V155h14.8v-49.4c0-0.6,0-1.2,0.1-1.8c0.1-4.6,0.9-8.7,2.3-12.2c1.1-2.9,2.6-5.3,4.6-7.4
		c4.6-4.9,10.9-7.3,18.7-7.3c7.7,0,13.8,2.4,18.3,7.1c2,2.1,3.6,4.7,4.6,7.6c1.3,3.5,2,7.5,2,12.2c0,0.2,0,0.4,0,0.6V155h14.7v-52.7
		C260.5,98.5,260.1,94.9,259.5,91.6z"/>
	<path class="st1" d="M387.8,103.8c-0.4-4.3-1.3-8.4-2.7-12.2c-0.7-2-1.5-3.8-2.5-5.7c-3.7-6.9-8.8-12.3-15.3-16.1
		c-6.5-3.8-13.7-5.7-21.6-5.7c-7.7,0-14.5,1.7-20.3,5.2c-5.8,3.4-10.2,7.7-13.1,12.8V65.6h-14.8v131.8h14.8v-58.9
		c3.1,5.1,7.5,9.4,13.3,12.8c5.8,3.4,12.5,5.1,20.1,5.1c7.9,0,15.1-2,21.6-5.9c6.5-3.9,11.6-9.4,15.3-16.5c3.7-7,5.5-15.1,5.5-24.1
		C388.1,107.9,388,105.8,387.8,103.8z M368.9,127.9c-2.7,5-6.4,8.9-11,11.6c-4.6,2.7-9.7,4-15.3,4c-5.4,0-10.5-1.3-15.1-4
		c-4.6-2.7-8.3-6.5-11.1-11.6c-2.7-5.1-4.2-11-4.2-17.7c0-2.2,0.2-4.3,0.5-6.4c0.6-4.1,1.9-7.8,3.7-11.2l0.6-1
		c2.7-4.6,6.2-8.1,10.5-10.6c4.6-2.7,9.7-4,15.1-4c5.6,0,10.6,1.3,15.3,3.9c4.4,2.5,7.9,6,10.5,10.7c0.2,0.3,0.3,0.5,0.4,0.8
		c1.9,3.4,3.1,7.2,3.6,11.4c0.3,2,0.4,4,0.4,6.2C373,116.8,371.6,122.8,368.9,127.9z"/>
	<path class="st1" d="M433.7,68.3c-4.8,2.8-8.6,6.8-11.2,11.9V65.6h-14.8V155h14.8v-48.6c0-0.9,0-1.8,0.1-2.6
		c0.2-4.7,1.1-8.8,2.6-12.2c3.6-8.2,11.1-12.3,22.2-12.3h3.9V64C444.4,64,438.5,65.4,433.7,68.3z"/>
	<path class="st1" d="M483.1,33.8c-1.9-2-4.2-2.9-6.9-2.9c-2.8,0-5.2,1-7.2,2.9c-2,2-2.9,4.3-2.9,7.2c0,2.8,1,5.2,2.9,7.2
		c2,1.9,4.3,2.9,7.2,2.9c2.7,0,5-1,6.9-2.9c1.9-2,2.8-4.3,2.8-7.2C486,38.2,485,35.8,483.1,33.8z M468.5,65.6V155h14.8V65.6H468.5z"
		/>
	<path class="st1" d="M651.3,91.6c-0.8-3.8-2-7.2-3.7-10.3c-3.1-5.8-7.4-10.1-12.9-13c-5.4-2.9-11.6-4.3-18.6-4.3
		c-7.1,0-13.5,1.7-19.2,5.2c-5.8,3.5-9.9,8.4-12.4,14.7c-2.8-6.5-7.1-11.5-12.9-14.8c-5.8-3.4-12.4-5-19.9-5c-6,0-11.4,1.2-16.4,3.7
		c-5,2.5-8.9,6.1-11.8,10.8V65.6h-14.8V155h14.8v-49.3c0-0.7,0-1.3,0.1-2c0.1-4.6,0.9-8.7,2.3-12.2c1.1-2.8,2.6-5.2,4.5-7.3
		c4.5-4.9,10.7-7.4,18.4-7.4c7.5,0,13.5,2.4,17.9,7.1c2,2.1,3.5,4.7,4.6,7.6c1.3,3.5,2,7.5,2,12.2c0,0.2,0,0.4,0,0.6V155h14.7v-49.3
		c0-0.7,0-1.3,0.1-2c0.1-4.6,0.9-8.7,2.3-12.2c1.1-2.8,2.6-5.2,4.5-7.3c4.6-4.9,10.7-7.4,18.4-7.4c7.5,0,13.4,2.4,17.8,7.1
		c2,2.1,3.5,4.7,4.6,7.6c1.3,3.5,2,7.5,2,12.2c0,0.2,0,0.4,0,0.6V155h14.7v-52.7C652.3,98.5,652,94.9,651.3,91.6z"/>
	<polygon class="st0" points="73.3,91.7 113.4,91.7 113.4,103.8 58.1,103.8 58.1,91.6 73.3,91.6 	"/>
	<rect x="140.2" y="92" class="st0" width="14.8" height="12.2"/>
	<path class="st0" d="M180.3,92h17.2c-1.4,3.5-2.2,7.5-2.3,12.2h-14.9V92z"/>
	<path class="st0" d="M259.5,91.8c0.6,3.3,1,6.9,1,10.7v1.5h-14.7c0-4.6-0.7-8.7-2-12.2H259.5z"/>
	<path class="st0" d="M297.4,91.8H317l-0.6,1c-1.8,3.4-3.1,7.1-3.7,11.2h-15.3V91.8z"/>
	<path class="st0" d="M385.1,91.6c1.4,3.8,2.3,7.8,2.7,12.2h-15.3c-0.6-4.2-1.8-8-3.6-11.4c-0.1-0.3-0.3-0.5-0.4-0.8H385.1z"/>
	<path class="st0" d="M407.7,92h17.5c-1.5,3.4-2.4,7.4-2.6,12.2h-14.9V92z"/>
	<rect x="468.6" y="91.9" class="st0" width="14.8" height="12.2"/>
	<path class="st0" d="M508.6,91.8h17.2c-1.4,3.5-2.2,7.5-2.3,12.2h-14.9V91.8z"/>
	<path class="st0" d="M571.3,92h19.1c-1.4,3.5-2.2,7.5-2.3,12.2h-14.8C573.2,99.6,572.6,95.5,571.3,92z"/>
	<path class="st0" d="M651.3,92.1c0.7,3.3,1,6.9,1,10.7v1.5h-14.7c0-4.6-0.7-8.7-2-12.2H651.3z"/>
	<path class="st0" d="M674.1,91.8h15.6c-1.8,3.5-2.8,7.6-3.3,12.2h-15C671.8,99.6,672.7,95.5,674.1,91.8z"/>
	<path class="st0" d="M755.1,91.8l-15-0.7c1.9,3.7,2.8,8,2.6,12.7l15.4,0.7l-0.1-1.9L755.1,91.8z"/>
	<ellipse class="st0" cx="147.2" cy="40.9" rx="3.1" ry="2.6"/>
	<ellipse class="st0" cx="475.9" cy="40.9" rx="3.1" ry="2.6"/>
	<path class="st0" d="M755.2,91.8l0.7,0.1c0,0,2.7,8.2,2.1,11.9c-0.6,3.7-3.7-10.3-3.7-10.3"/>
</g>
</svg>
