<?xml version="1.0" encoding="utf-8"?>
<!-- Generator: Adobe Illustrator 24.3.0, SVG Export Plug-In . SVG Version: 6.00 Build 0)  -->
<svg version="1.1" id="Layer_1" xmlns="http://www.w3.org/2000/svg" xmlns:xlink="http://www.w3.org/1999/xlink" x="0px" y="0px"
	 viewBox="0 0 360 193.9" style="enable-background:new 0 0 360 193.9;" xml:space="preserve">
<style type="text/css">
	.st0{display:none;}
	.st1{display:inline;}
	.st2{fill:#008EAA;}
	.st3{display:inline;fill:#FFFFFF;}
	.st4{display:inline;fill:#008EAA;}
	.st5{fill:none;}
	.st6{fill:#0090AC;}
	.st7{fill:#1B1E3A;}
	.st8{fill:#1A1F39;}
</style>
<g class="st0">
	<g class="st1">
		<path class="st2" d="M629.9,142c-0.1-0.3-0.2-0.5-0.5-0.7c-0.8-0.6-1.7-1.1-2.8-1.5s-2.2-0.5-3.4-0.5c-1.7,0-3.2,0.3-4.5,0.9
			c-1.3,0.6-2.5,1.5-3.4,2.5c-0.9,1.1-1.7,2.3-2.1,3.8c-0.5,1.5-0.7,3-0.7,4.7c0,2.1,0.4,3.8,1.2,5.2s1.8,2.4,3.2,3.1
			c1.4,0.7,3,1,4.8,1c1.1,0,2.2-0.2,3.2-0.5c1.1-0.3,2-0.8,2.9-1.5c0.3-0.2,0.4-0.4,0.5-0.7c0.1-0.2,0.1-0.5,0-0.7s-0.2-0.4-0.4-0.6
			c-0.2-0.2-0.4-0.3-0.6-0.3c-0.2,0-0.5,0.1-0.8,0.3c-0.8,0.6-1.5,1-2.3,1.2s-1.6,0.4-2.4,0.4c-1.4,0-2.5-0.2-3.5-0.7
			s-1.7-1.2-2.2-2.2s-0.7-2.4-0.7-4c0-1.8,0.3-3.4,0.9-4.9c0.6-1.4,1.5-2.5,2.7-3.3s2.6-1.2,4.2-1.2c0.9,0,1.8,0.1,2.6,0.4
			c0.8,0.3,1.6,0.7,2.4,1.3c0.3,0.2,0.5,0.3,0.8,0.3s0.5-0.1,0.6-0.3c0.2-0.2,0.3-0.4,0.4-0.6C630,142.5,630,142.2,629.9,142z"/>
		<path class="st2" d="M643.5,148.6c-0.5-0.9-1.2-1.7-2.2-2.2c-0.9-0.5-2.1-0.8-3.4-0.8c-1.1,0-2.1,0.2-3.1,0.6
			c-0.9,0.4-1.7,1-2.4,1.8s-1.2,1.7-1.6,2.7c-0.4,1-0.5,2.2-0.5,3.4c0,1.3,0.3,2.4,0.7,3.4c0.5,1,1.2,1.7,2.2,2.2
			c0.9,0.5,2.1,0.8,3.4,0.8c1.1,0,2.2-0.2,3.1-0.6c0.9-0.4,1.7-1,2.4-1.8s1.2-1.7,1.6-2.7c0.4-1.1,0.6-2.2,0.6-3.4
			C644.3,150.7,644,149.6,643.5,148.6z M641,155.2c-0.4,1-0.9,1.8-1.7,2.4c-0.7,0.6-1.6,0.9-2.6,0.9c-1.2,0-2.1-0.3-2.7-1.1
			c-0.7-0.7-1-1.7-1-3.1c0-1.2,0.2-2.3,0.5-3.3c0.4-1,0.9-1.7,1.7-2.3c0.7-0.6,1.6-0.9,2.6-0.9c1.2,0,2.1,0.4,2.7,1.1
			c0.7,0.7,1,1.7,1,3.1C641.6,153.1,641.4,154.2,641,155.2z"/>
		<path class="st2" d="M660.4,148.3c-0.3-0.9-0.8-1.5-1.5-2c-0.7-0.4-1.6-0.6-2.7-0.6c-1.3,0-2.4,0.3-3.4,0.9
			c-0.7,0.5-1.3,1.1-1.8,1.9l0.2-1.2c0.1-0.5,0-0.9-0.1-1.1c-0.2-0.2-0.5-0.4-0.9-0.4s-0.8,0.1-1,0.3c-0.3,0.2-0.4,0.5-0.5,1
			l-1.9,11.8c-0.1,0.5,0,0.9,0.2,1.2s0.5,0.4,0.9,0.4c0.9,0,1.4-0.4,1.5-1.3l1.1-6.6c0.2-1.4,0.7-2.6,1.5-3.4
			c0.8-0.8,1.9-1.3,3.3-1.3c1.1,0,1.8,0.3,2.2,0.9c0.4,0.6,0.5,1.6,0.3,2.8l-1.2,7.3c-0.1,0.5,0,0.9,0.2,1.2s0.5,0.4,0.9,0.4
			s0.8-0.1,1.1-0.3s0.4-0.5,0.5-1l1.2-7.5C660.7,150.3,660.7,149.1,660.4,148.3z"/>
		<path class="st2" d="M675.3,147.5c-0.1-0.2-0.3-0.4-0.5-0.6c-0.6-0.4-1.2-0.7-2-0.9s-1.6-0.3-2.4-0.3c-1.2,0-2.3,0.2-3.2,0.6
			c-0.9,0.4-1.6,0.9-2.1,1.6c-0.5,0.7-0.7,1.5-0.7,2.3c0,0.9,0.3,1.7,0.9,2.3c0.6,0.6,1.3,1.1,2.4,1.3l2.8,0.7
			c0.6,0.1,1,0.4,1.4,0.7c0.3,0.3,0.5,0.7,0.5,1.2c0,0.7-0.3,1.3-0.9,1.7c-0.6,0.4-1.4,0.6-2.4,0.6c-0.7,0-1.4-0.1-2.1-0.3
			c-0.7-0.2-1.3-0.4-2-0.8c-0.3-0.2-0.5-0.2-0.8-0.2c-0.2,0-0.4,0.1-0.5,0.3s-0.2,0.3-0.3,0.6c0,0.2,0,0.4,0.1,0.6
			c0.1,0.2,0.3,0.4,0.6,0.6c0.6,0.4,1.3,0.6,2.2,0.9c0.9,0.2,1.8,0.3,2.7,0.3c1.7,0,3.1-0.4,4.2-1.2c1.1-0.8,1.6-1.9,1.6-3.3
			c0-0.9-0.3-1.7-0.9-2.2c-0.6-0.6-1.4-1-2.5-1.3l-2.8-0.7c-0.6-0.1-1-0.4-1.3-0.7s-0.4-0.7-0.4-1.1c0-0.7,0.3-1.3,0.9-1.7
			c0.6-0.4,1.4-0.7,2.5-0.7c0.7,0,1.3,0.1,1.9,0.3c0.6,0.2,1.2,0.4,1.6,0.8c0.3,0.2,0.5,0.3,0.8,0.2c0.2,0,0.4-0.1,0.5-0.2
			c0.1-0.1,0.2-0.3,0.3-0.5C675.5,148,675.4,147.7,675.3,147.5z"/>
		<path class="st2" d="M691.8,146.1c-0.2-0.3-0.5-0.4-1-0.4c-0.4,0-0.7,0.1-1,0.3s-0.4,0.5-0.5,1l-1.1,6.7c-0.2,1.4-0.7,2.5-1.5,3.4
			c-0.8,0.8-1.9,1.3-3.2,1.3c-1,0-1.7-0.3-2.1-0.9c-0.4-0.6-0.5-1.6-0.3-2.9l1.1-7.3c0.1-0.5,0-0.9-0.2-1.1c-0.2-0.3-0.5-0.4-1-0.4
			c-0.4,0-0.7,0.1-1,0.3c-0.2,0.2-0.4,0.5-0.5,1l-1.2,7.6c-0.2,1.4-0.1,2.5,0.1,3.4c0.3,0.9,0.8,1.5,1.5,2c0.7,0.4,1.6,0.6,2.6,0.6
			c1.2,0,2.4-0.3,3.3-0.9c0.7-0.4,1.3-1,1.7-1.7l-0.2,1.2c-0.1,0.5,0,0.8,0.2,1.1s0.5,0.4,0.9,0.4c0.8,0,1.3-0.4,1.5-1.3l1.9-12
			C692.1,146.7,692,146.4,691.8,146.1z"/>
		<path class="st2" d="M700.9,158.4c-0.1-0.1-0.2-0.1-0.4-0.1c-0.1,0-0.2,0-0.4,0.1c-0.1,0-0.4,0-0.6,0c-0.8,0-1.3-0.2-1.6-0.7
			c-0.3-0.4-0.4-1.2-0.2-2.2l2.3-14.6c0.1-0.5,0-0.9-0.2-1.2s-0.5-0.4-0.9-0.4s-0.8,0.1-1.1,0.3s-0.4,0.5-0.5,1l-2.4,14.9
			c-0.3,1.6-0.1,2.9,0.6,3.7c0.7,0.9,1.7,1.3,3.2,1.3c0.2,0,0.4,0,0.6,0c0.3,0,0.4-0.1,0.6-0.1c0.3-0.1,0.5-0.2,0.7-0.4
			s0.3-0.5,0.3-1C701,158.7,701,158.5,700.9,158.4z"/>
		<path class="st2" d="M712.7,146.2c-0.2-0.1-0.5-0.2-0.9-0.2h-3.4l0.5-3.1c0.1-0.5,0-0.9-0.2-1.1c-0.2-0.3-0.5-0.4-1-0.4
			c-0.4,0-0.8,0.1-1,0.3s-0.4,0.5-0.5,1l-0.5,3.3H704c-0.4,0-0.7,0.1-1,0.3s-0.4,0.5-0.4,0.9c0,0.3,0.1,0.5,0.3,0.6s0.5,0.2,0.8,0.2
			h1.7l-1.1,7.3c-0.2,1.1-0.1,2,0.2,2.8s0.8,1.4,1.6,1.9c0.8,0.4,1.7,0.7,2.8,0.7c0.3,0,0.6,0,0.9-0.1c0.3-0.1,0.6-0.1,0.8-0.2
			c0.3-0.1,0.5-0.2,0.7-0.4c0.1-0.2,0.2-0.5,0.2-1c0-0.3-0.1-0.5-0.2-0.6c-0.1-0.1-0.3-0.2-0.5-0.2s-0.4,0-0.6,0.1
			c-0.2,0.1-0.5,0.1-1,0.1c-0.9,0-1.5-0.3-2-0.7c-0.4-0.5-0.5-1.3-0.3-2.5l1.1-7h3.6c0.4,0,0.7-0.1,0.9-0.3c0.3-0.2,0.4-0.5,0.4-0.9
			C713,146.5,712.9,146.3,712.7,146.2z"/>
		<path class="st2" d="M718.1,146.2c-0.2-0.3-0.5-0.4-0.9-0.4s-0.8,0.1-1.1,0.3s-0.4,0.5-0.5,1l-1.9,11.9c-0.1,0.5,0,0.9,0.2,1.2
			s0.5,0.4,0.9,0.4s0.8-0.1,1.1-0.3s0.4-0.5,0.5-1l1.9-11.9C718.4,146.8,718.3,146.4,718.1,146.2z M719.4,139.9
			c-0.3-0.3-0.7-0.4-1.2-0.4c-0.6,0-1,0.1-1.4,0.4c-0.3,0.3-0.5,0.7-0.6,1.3c0,0.4,0.1,0.8,0.4,1.1c0.3,0.3,0.6,0.4,1.1,0.4
			c0.6,0,1.1-0.1,1.4-0.4c0.3-0.3,0.5-0.7,0.6-1.3C719.8,140.5,719.6,140.1,719.4,139.9z"/>
		<path class="st2" d="M734.4,148.3c-0.3-0.9-0.8-1.5-1.5-2c-0.7-0.4-1.6-0.6-2.7-0.6c-1.3,0-2.4,0.3-3.4,0.9
			c-0.7,0.5-1.3,1.1-1.8,1.9l0.2-1.2c0.1-0.5,0-0.9-0.2-1.1c-0.2-0.2-0.5-0.4-0.9-0.4s-0.7,0.1-1,0.3s-0.4,0.5-0.5,1l-1.9,11.8
			c-0.1,0.5,0,0.9,0.2,1.2s0.5,0.4,0.9,0.4c0.9,0,1.4-0.4,1.5-1.3l1.1-6.6c0.2-1.4,0.7-2.6,1.6-3.4c0.8-0.8,1.9-1.3,3.3-1.3
			c1.1,0,1.8,0.3,2.2,0.9c0.4,0.6,0.5,1.6,0.3,2.8l-1.2,7.3c0,0.5,0,0.9,0.2,1.2s0.5,0.4,0.9,0.4s0.8-0.1,1.1-0.3s0.4-0.5,0.4-1
			l1.2-7.5C734.7,150.3,734.7,149.1,734.4,148.3z"/>
		<path class="st2" d="M752.3,146.2c-0.2-0.3-0.5-0.4-0.9-0.4s-0.7,0.1-1,0.3s-0.4,0.5-0.5,1l-0.3,1.6c-0.4-0.9-0.9-1.6-1.7-2.1
			c-0.9-0.6-1.9-0.9-3.1-0.9c-1.2,0-2.2,0.2-3,0.7c-0.9,0.5-1.7,1.1-2.3,1.9c-0.6,0.8-1.1,1.7-1.4,2.7c-0.3,1-0.5,2.1-0.5,3.2
			c0,1.2,0.2,2.2,0.7,3.1c0.5,0.9,1.1,1.6,2,2c0.9,0.5,1.9,0.7,3,0.7c1.2,0,2.2-0.3,3.2-0.8c0.7-0.4,1.3-1,1.8-1.7l-0.4,2.6
			c-0.2,1.3-0.7,2.2-1.5,2.9c-0.8,0.6-1.8,0.9-3,0.9c-0.9,0-1.6-0.1-2.4-0.4c-0.7-0.3-1.4-0.6-2.1-1c-0.3-0.2-0.5-0.2-0.7-0.2
			s-0.4,0.1-0.6,0.3c-0.2,0.2-0.3,0.3-0.3,0.5s0,0.4,0,0.6c0.1,0.2,0.2,0.4,0.5,0.6c0.8,0.5,1.7,0.9,2.7,1.2s2.1,0.5,3.2,0.5
			c2,0,3.5-0.5,4.6-1.5s1.8-2.5,2.1-4.5l2-12.5C752.5,146.8,752.5,146.4,752.3,146.2z M748.4,154.7c-0.4,0.9-0.9,1.7-1.6,2.3
			c-0.7,0.6-1.6,0.9-2.7,0.9c-1.2,0-2.1-0.3-2.8-1s-1-1.6-1-2.8c0-1.1,0.2-2.1,0.6-3c0.4-0.9,0.9-1.7,1.7-2.3
			c0.7-0.6,1.6-0.8,2.6-0.8c1.2,0,2.2,0.3,2.8,1c0.7,0.7,1,1.6,1,2.8C749,152.7,748.8,153.7,748.4,154.7z"/>
	</g>
	<path class="st3" d="M758.2,77.9c0-8.2-1.8-15.5-5.3-21.9c-3.5-6.5-8.6-11.6-15.1-15.3c-6.5-3.7-14-5.6-22.5-5.6
		c-8.7,0-16.4,1.9-23.1,5.6c-6.7,3.8-11.9,9.1-15.6,16.1c-1,1.9-1.8,3.8-2.5,5.8c-1.3,3.8-2.2,7.8-2.7,12.2c-0.2,2-0.3,4.2-0.3,6.4
		c0,9.2,1.9,17.4,5.7,24.4c3.8,7,9.1,12.4,15.7,16.2c6.7,3.8,14.3,5.7,22.8,5.7c10.7,0,19.6-2.7,26.8-8.1c7.2-5.4,12-12.4,14.3-21
		h-16c-1.7,5-4.7,9-9,12s-9.7,4.5-16.1,4.5c-7.8,0-14.5-2.5-20-7.4c-5.5-5-8.5-11.8-9.1-20.6h71.5C758,83.7,758.2,80.7,758.2,77.9z
		 M686.4,74.8c0.4-4.6,1.5-8.7,3.3-12.2c1.5-3,3.4-5.5,5.8-7.7c5.3-4.8,11.6-7.2,19.2-7.2c5.2,0,10,1.1,14.3,3.2s7.7,5.2,10.2,9.3
		c0.5,0.8,0.9,1.6,1.3,2.4c1.7,3.5,2.5,7.6,2.5,12.2C743,74.8,686.4,74.8,686.4,74.8z"/>
	<path class="st3" d="M72.9,24.4h49.4V12.3H58V126h14.8V74.8H113V62.7H72.9V24.4z"/>
	<path class="st3" d="M154.9,4.8c-1.9-2-4.2-2.9-7-2.9s-5.2,1-7.2,2.9c-2,2-2.9,4.3-2.9,7.2c0,2.8,1,5.2,2.9,7.2
		c1.9,1.9,4.3,2.9,7.2,2.9c2.7,0,5-1,7-2.9c1.9-2,2.8-4.3,2.8-7.2C157.7,9.2,156.7,6.8,154.9,4.8z M140.2,36.6V126H155V36.6H140.2z"
		/>
	<path class="st3" d="M259.5,62.6c-1.4-7.3-4.5-13.2-9.1-17.8c-6.7-6.6-15.5-9.8-26.4-9.8c-6.1,0-11.6,1.2-16.7,3.7
		c-5.1,2.5-9.1,6-12,10.6V36.6h-14.8V126h14.8V76.6c0-0.6,0-1.2,0.1-1.8c0.1-4.6,0.9-8.7,2.3-12.2c1.1-2.9,2.6-5.3,4.6-7.4
		c4.6-4.9,10.9-7.3,18.7-7.3c7.7,0,13.8,2.4,18.3,7.1c2,2.1,3.6,4.7,4.6,7.6c1.3,3.5,2,7.5,2,12.2c0,0.2,0,0.4,0,0.6V126h14.7V73.3
		C260.5,69.5,260.1,65.9,259.5,62.6z"/>
	<path class="st3" d="M387.8,74.8c-0.4-4.3-1.3-8.4-2.7-12.2c-0.7-2-1.5-3.8-2.5-5.7c-3.7-6.9-8.8-12.3-15.3-16.1
		c-6.5-3.8-13.7-5.7-21.6-5.7c-7.7,0-14.5,1.7-20.3,5.2c-5.8,3.4-10.2,7.7-13.1,12.8V36.6h-14.8v131.8h14.8v-58.9
		c3.1,5.1,7.5,9.4,13.3,12.8c5.8,3.4,12.5,5.1,20.1,5.1c7.9,0,15.1-2,21.6-5.9s11.6-9.4,15.3-16.5c3.7-7,5.5-15.1,5.5-24.1
		C388.1,78.9,388,76.8,387.8,74.8z M368.9,98.9c-2.7,5-6.4,8.9-11,11.6s-9.7,4-15.3,4c-5.4,0-10.5-1.3-15.1-4s-8.3-6.5-11.1-11.6
		c-2.7-5.1-4.2-11-4.2-17.7c0-2.2,0.2-4.3,0.5-6.4c0.6-4.1,1.9-7.8,3.7-11.2l0.6-1c2.7-4.6,6.2-8.1,10.5-10.6c4.6-2.7,9.7-4,15.1-4
		c5.6,0,10.6,1.3,15.3,3.9c4.4,2.5,7.9,6,10.5,10.7c0.2,0.3,0.3,0.5,0.4,0.8c1.9,3.4,3.1,7.2,3.6,11.4c0.3,2,0.4,4,0.4,6.2
		C373,87.8,371.6,93.8,368.9,98.9z"/>
	<path class="st3" d="M433.7,39.3c-4.8,2.8-8.6,6.8-11.2,11.9V36.6h-14.8V126h14.8V77.4c0-0.9,0-1.8,0.1-2.6
		c0.2-4.7,1.1-8.8,2.6-12.2c3.6-8.2,11.1-12.3,22.2-12.3h3.9V35C444.4,35,438.5,36.4,433.7,39.3z"/>
	<path class="st3" d="M483.1,4.8c-1.9-2-4.2-2.9-6.9-2.9c-2.8,0-5.2,1-7.2,2.9c-2,2-2.9,4.3-2.9,7.2c0,2.8,1,5.2,2.9,7.2
		c2,1.9,4.3,2.9,7.2,2.9c2.7,0,5-1,6.9-2.9c1.9-2,2.8-4.3,2.8-7.2C486,9.2,485,6.8,483.1,4.8z M468.5,36.6V126h14.8V36.6H468.5z"/>
	<path class="st3" d="M651.3,62.6c-0.8-3.8-2-7.2-3.7-10.3c-3.1-5.8-7.4-10.1-12.9-13c-5.4-2.9-11.6-4.3-18.6-4.3
		c-7.1,0-13.5,1.7-19.2,5.2c-5.8,3.5-9.9,8.4-12.4,14.7c-2.8-6.5-7.1-11.5-12.9-14.8c-5.8-3.4-12.4-5-19.9-5c-6,0-11.4,1.2-16.4,3.7
		s-8.9,6.1-11.8,10.8v-13h-14.8V126h14.8V76.7c0-0.7,0-1.3,0.1-2c0.1-4.6,0.9-8.7,2.3-12.2c1.1-2.8,2.6-5.2,4.5-7.3
		c4.5-4.9,10.7-7.4,18.4-7.4c7.5,0,13.5,2.4,17.9,7.1c2,2.1,3.5,4.7,4.6,7.6c1.3,3.5,2,7.5,2,12.2c0,0.2,0,0.4,0,0.6V126H588V76.7
		c0-0.7,0-1.3,0.1-2c0.1-4.6,0.9-8.7,2.3-12.2c1.1-2.8,2.6-5.2,4.5-7.3c4.6-4.9,10.7-7.4,18.4-7.4c7.5,0,13.4,2.4,17.8,7.1
		c2,2.1,3.5,4.7,4.6,7.6c1.3,3.5,2,7.5,2,12.2c0,0.2,0,0.4,0,0.6V126h14.7V73.3C652.3,69.5,652,65.9,651.3,62.6z"/>
	<polygon class="st4" points="73.3,62.7 113.4,62.7 113.4,74.8 58.1,74.8 58.1,62.6 73.3,62.6 	"/>
	<rect x="140.2" y="63" class="st4" width="14.8" height="12.2"/>
	<path class="st4" d="M180.3,63h17.2c-1.4,3.5-2.2,7.5-2.3,12.2h-14.9V63z"/>
	<path class="st4" d="M259.5,62.8c0.6,3.3,1,6.9,1,10.7V75h-14.7c0-4.6-0.7-8.7-2-12.2H259.5z"/>
	<path class="st4" d="M297.4,62.8H317l-0.6,1c-1.8,3.4-3.1,7.1-3.7,11.2h-15.3V62.8z"/>
	<path class="st4" d="M385.1,62.6c1.4,3.8,2.3,7.8,2.7,12.2h-15.3c-0.6-4.2-1.8-8-3.6-11.4c-0.1-0.3-0.3-0.5-0.4-0.8
		C368.5,62.6,385.1,62.6,385.1,62.6z"/>
	<path class="st4" d="M407.7,63h17.5c-1.5,3.4-2.4,7.4-2.6,12.2h-14.9V63z"/>
	<rect x="468.6" y="62.9" class="st4" width="14.8" height="12.2"/>
	<path class="st4" d="M508.6,62.8h17.2c-1.4,3.5-2.2,7.5-2.3,12.2h-14.9V62.8z"/>
	<path class="st4" d="M571.3,63h19.1c-1.4,3.5-2.2,7.5-2.3,12.2h-14.8C573.2,70.6,572.6,66.5,571.3,63z"/>
	<path class="st4" d="M651.3,63.1c0.7,3.3,1,6.9,1,10.7v1.5h-14.7c0-4.6-0.7-8.7-2-12.2H651.3z"/>
	<path class="st4" d="M674.1,62.8h15.6c-1.8,3.5-2.8,7.6-3.3,12.2h-15C671.8,70.6,672.7,66.5,674.1,62.8z"/>
	<path class="st4" d="M755.1,62.8l-15-0.7c1.9,3.7,2.8,8,2.6,12.7l15.4,0.7l-0.1-1.9L755.1,62.8z"/>
	<ellipse class="st4" cx="147.2" cy="11.9" rx="3.1" ry="2.6"/>
	<ellipse class="st4" cx="475.9" cy="11.9" rx="3.1" ry="2.6"/>
	<path class="st4" d="M755.2,62.8l0.7,0.1c0,0,2.7,8.2,2.1,11.9c-0.6,3.7-3.7-10.3-3.7-10.3"/>
</g>
<polygon class="st5" points="147.9,79.2 167.7,59.3 147.9,59.3 "/>
<polygon class="st5" points="147.9,54 173,54 191.3,35.6 147.9,35.6 "/>
<path class="st5" d="M180.8,42.5h-9.4V59h9.4c3.6,0,6.2-0.7,7.9-2.1c1.7-1.4,2.5-3.4,2.5-6.1C191.2,45.3,187.8,42.5,180.8,42.5z"/>
<path class="st5" d="M166.7,46.7h-9.4v16.5h9.4c3.6,0,6.2-0.7,7.9-2.1c1.7-1.4,2.5-3.4,2.5-6.1C177.1,49.5,173.6,46.7,166.7,46.7z"
	/>
<g>
	<path class="st6" d="M177.9,47.6c-3.1-2.8-7.5-4.2-13.4-4.2h-9.8V49h9.8c7.4,0,11,3.2,11,9.6c0,3-0.9,5.4-2.7,7
		c-1.8,1.6-4.6,2.5-8.3,2.5h-4.4l-5.6,5.6h9.9c6.1,0,10.6-1.4,13.5-4.3c3-2.9,4.4-6.4,4.4-10.8C182.5,54.1,180.9,50.5,177.9,47.6z"
		/>
	<path class="st6" d="M154.6,38.5"/>
	<path class="st6" d="M154.6,51.3"/>
	<path class="st6" d="M158.9,67.8"/>
	<path class="st6" d="M144.4,56"/>
</g>
<path class="st6" d="M142.1,86.1"/>
<path class="st6" d="M172.5,55.8"/>
<path class="st6" d="M142.3,86.2"/>
<path class="st6" d="M170.5,55.9"/>
<path class="st6" d="M143.9,57"/>
<path class="st6" d="M172.5,55.8"/>
<path class="st6" d="M144.4,56.6"/>
<line class="st5" x1="196" y1="30.3" x2="145.2" y2="81.4"/>
<line class="st5" x1="209.5" y1="23.3" x2="155.9" y2="77.2"/>
<g>
	<g>
		<g>
			<rect x="142.6" y="30.5" class="st7" width="5.4" height="5.2"/>
		</g>
	</g>
</g>
<g>
	<g>
		<g>
			<g>
				<rect x="142.9" y="53.8" class="st7" width="5" height="5.7"/>
			</g>
		</g>
	</g>
</g>
<g>
	<g>
		<g>
			<polygon class="st8" points="143,59.3 143,54 147.9,54 147.9,35.6 142.6,35.6 142.6,84.4 142.7,84.4 147.9,79.2 147.9,59.3 			
				"/>
		</g>
	</g>
	<g>
		<g>
			<g>
				<g>
					<polygon class="st8" points="147.9,35.6 191.3,35.6 196.6,30.4 142.6,30.4 142.6,30.5 147.9,30.5 					"/>
				</g>
			</g>
		</g>
	</g>
</g>
<polygon class="st7" points="147.8,54 147.8,59.3 167.7,59.3 173,54 "/>
<path class="st6" d="M147.9,79.6"/>
<polygon class="st6" points="133.4,67.7 133.4,67.5 133.4,67.7 "/>
<polygon class="st6" points="133.4,72.3 128.6,72.3 128.6,69.1 128.3,69.1 128.3,61.8 133.4,61.8 133.4,45.6 132.9,45.6 132.9,43.3 
	128.1,43.3 128.1,99 133.4,93.7 "/>
<polygon class="st6" points="133.2,49 140.8,49 140.8,43.3 132.7,43.3 132.7,46.6 133.2,46.6 "/>
<rect x="132.9" y="46.4" class="st6" width="0.5" height="2.2"/>
<polygon class="st6" points="133.4,63.9 133.4,63.9 133.4,67.5 "/>
<rect x="128.6" y="66.9" class="st6" width="4.9" height="5.7"/>
<polygon class="st6" points="128.3,73.1 128.6,73.1 128.6,67.8 133.4,67.8 133.4,67.6 133.4,61.3 128.3,61.3 "/>
<path class="st5" d="M150,76.8"/>
<path class="st5" d="M173,54"/>
<path class="st5" d="M150.7,76.4"/>
<path class="st5" d="M173,54"/>
<path class="st5" d="M150.2,77.2"/>
<path class="st5" d="M173,54"/>
<path class="st5" d="M184.1,42.9"/>
<path class="st5" d="M142.6,84.4"/>
<path class="st5" d="M141.9,85.2"/>
<path class="st5" d="M191.3,35.6"/>
<rect x="149.7" y="43.4" class="st6" width="5.8" height="5.6"/>
<line class="st5" x1="147.9" y1="79.2" x2="127.8" y2="99.5"/>
<g>
	<path class="st6" d="M276.8,161.8c0-0.1-0.1-0.2-0.2-0.3c-0.3-0.3-0.7-0.5-1.2-0.6c-0.5-0.2-0.9-0.2-1.4-0.2
		c-0.7,0-1.3,0.1-1.9,0.4c-0.6,0.3-1,0.6-1.4,1.1c-0.4,0.5-0.7,1-0.9,1.6c-0.2,0.6-0.3,1.3-0.3,2c0,0.9,0.2,1.6,0.5,2.2
		c0.3,0.6,0.8,1,1.3,1.3c0.6,0.3,1.3,0.4,2,0.4c0.5,0,0.9-0.1,1.4-0.2c0.4-0.1,0.9-0.3,1.2-0.6c0.1-0.1,0.2-0.2,0.2-0.3
		c0-0.1,0-0.2,0-0.3c0-0.1-0.1-0.2-0.2-0.3c-0.1-0.1-0.2-0.1-0.3-0.1c-0.1,0-0.2,0-0.3,0.1c-0.3,0.2-0.6,0.4-1,0.5
		c-0.3,0.1-0.7,0.2-1,0.2c-0.6,0-1.1-0.1-1.5-0.3c-0.4-0.2-0.7-0.5-0.9-0.9c-0.2-0.4-0.3-1-0.3-1.7c0-0.8,0.1-1.4,0.4-2.1
		c0.3-0.6,0.6-1.1,1.1-1.4c0.5-0.3,1.1-0.5,1.8-0.5c0.4,0,0.8,0.1,1.1,0.2s0.7,0.3,1,0.5c0.1,0.1,0.2,0.1,0.3,0.1
		c0.1,0,0.2-0.1,0.3-0.1c0.1-0.1,0.1-0.2,0.2-0.3S276.8,161.9,276.8,161.8z"/>
	<path class="st6" d="M282.5,164.6c-0.2-0.4-0.5-0.7-0.9-0.9c-0.4-0.2-0.9-0.3-1.4-0.3c-0.5,0-0.9,0.1-1.3,0.3
		c-0.4,0.2-0.7,0.4-1,0.8c-0.3,0.3-0.5,0.7-0.7,1.1c-0.2,0.4-0.2,0.9-0.2,1.4c0,0.6,0.1,1,0.3,1.4c0.2,0.4,0.5,0.7,0.9,0.9
		c0.4,0.2,0.9,0.3,1.4,0.3c0.5,0,0.9-0.1,1.3-0.3c0.4-0.2,0.7-0.4,1-0.8c0.3-0.3,0.5-0.7,0.7-1.1c0.2-0.4,0.2-0.9,0.2-1.4
		C282.9,165.5,282.8,165,282.5,164.6z M281.5,167.4c-0.2,0.4-0.4,0.7-0.7,1c-0.3,0.2-0.7,0.4-1.1,0.4c-0.5,0-0.9-0.1-1.1-0.4
		c-0.3-0.3-0.4-0.7-0.4-1.3c0-0.5,0.1-1,0.2-1.4c0.2-0.4,0.4-0.7,0.7-1c0.3-0.2,0.7-0.4,1.1-0.4c0.5,0,0.9,0.2,1.1,0.4
		c0.3,0.3,0.4,0.7,0.4,1.3C281.7,166.5,281.6,166.9,281.5,167.4z"/>
	<path class="st6" d="M289.7,164.4c-0.1-0.4-0.3-0.6-0.6-0.8c-0.3-0.2-0.7-0.3-1.1-0.3c-0.6,0-1,0.1-1.4,0.4
		c-0.3,0.2-0.6,0.5-0.8,0.8l0.1-0.5c0-0.2,0-0.4-0.1-0.5c-0.1-0.1-0.2-0.2-0.4-0.2c-0.2,0-0.3,0-0.4,0.1c-0.1,0.1-0.2,0.2-0.2,0.4
		l-0.8,5c0,0.2,0,0.4,0.1,0.5c0.1,0.1,0.2,0.2,0.4,0.2c0.4,0,0.6-0.2,0.6-0.6l0.5-2.8c0.1-0.6,0.3-1.1,0.6-1.4
		c0.3-0.4,0.8-0.5,1.4-0.5c0.5,0,0.8,0.1,0.9,0.4c0.2,0.3,0.2,0.7,0.1,1.2l-0.5,3.1c0,0.2,0,0.4,0.1,0.5c0.1,0.1,0.2,0.2,0.4,0.2
		c0.2,0,0.3,0,0.5-0.1c0.1-0.1,0.2-0.2,0.2-0.4l0.5-3.2C289.8,165.3,289.8,164.8,289.7,164.4z"/>
	<path class="st6" d="M296,164.1c0-0.1-0.1-0.2-0.2-0.2c-0.2-0.2-0.5-0.3-0.9-0.4s-0.7-0.1-1-0.1c-0.5,0-1,0.1-1.4,0.3
		c-0.4,0.2-0.7,0.4-0.9,0.7c-0.2,0.3-0.3,0.6-0.3,1c0,0.4,0.1,0.7,0.4,1c0.2,0.3,0.6,0.4,1,0.5l1.2,0.3c0.2,0.1,0.4,0.2,0.6,0.3
		c0.1,0.1,0.2,0.3,0.2,0.5c0,0.3-0.1,0.5-0.4,0.7c-0.2,0.2-0.6,0.3-1,0.3c-0.3,0-0.6,0-0.9-0.1c-0.3-0.1-0.6-0.2-0.8-0.3
		c-0.1-0.1-0.2-0.1-0.3-0.1c-0.1,0-0.2,0.1-0.2,0.1c-0.1,0.1-0.1,0.1-0.1,0.2c0,0.1,0,0.2,0.1,0.3c0,0.1,0.1,0.2,0.2,0.2
		c0.3,0.2,0.6,0.3,0.9,0.4c0.4,0.1,0.7,0.1,1.1,0.1c0.7,0,1.3-0.2,1.8-0.5c0.4-0.3,0.7-0.8,0.7-1.4c0-0.4-0.1-0.7-0.4-1
		c-0.2-0.3-0.6-0.4-1-0.5l-1.2-0.3c-0.2-0.1-0.4-0.2-0.5-0.3c-0.1-0.1-0.2-0.3-0.2-0.5c0-0.3,0.1-0.6,0.4-0.7c0.3-0.2,0.6-0.3,1-0.3
		c0.3,0,0.5,0,0.8,0.1c0.3,0.1,0.5,0.2,0.7,0.3c0.1,0.1,0.2,0.1,0.3,0.1c0.1,0,0.2,0,0.2-0.1c0.1-0.1,0.1-0.1,0.1-0.2
		C296,164.3,296,164.2,296,164.1z"/>
	<path class="st6" d="M302.9,163.5c-0.1-0.1-0.2-0.2-0.4-0.2c-0.2,0-0.3,0-0.4,0.1c-0.1,0.1-0.2,0.2-0.2,0.4l-0.4,2.8
		c-0.1,0.6-0.3,1.1-0.6,1.4c-0.3,0.4-0.8,0.5-1.3,0.5c-0.4,0-0.7-0.1-0.9-0.4c-0.2-0.3-0.2-0.7-0.1-1.2l0.5-3.1c0-0.2,0-0.4-0.1-0.5
		c-0.1-0.1-0.2-0.2-0.4-0.2c-0.2,0-0.3,0-0.4,0.1c-0.1,0.1-0.2,0.2-0.2,0.4l-0.5,3.2c-0.1,0.6-0.1,1.1,0.1,1.4
		c0.1,0.4,0.3,0.6,0.6,0.8c0.3,0.2,0.7,0.3,1.1,0.3c0.5,0,1-0.1,1.4-0.4c0.3-0.2,0.5-0.4,0.7-0.7l-0.1,0.5c0,0.2,0,0.3,0.1,0.4
		c0.1,0.1,0.2,0.2,0.4,0.2c0.4,0,0.6-0.2,0.6-0.5l0.8-5.1C303,163.8,303,163.6,302.9,163.5z"/>
	<path class="st6" d="M306.8,168.7c0,0-0.1-0.1-0.2-0.1c0,0-0.1,0-0.2,0c-0.1,0-0.2,0-0.3,0c-0.3,0-0.6-0.1-0.7-0.3
		c-0.1-0.2-0.2-0.5-0.1-0.9l1-6.2c0-0.2,0-0.4-0.1-0.5c-0.1-0.1-0.2-0.2-0.4-0.2c-0.2,0-0.3,0-0.4,0.1c-0.1,0.1-0.2,0.2-0.2,0.4
		l-1,6.3c-0.1,0.7,0,1.2,0.2,1.6c0.3,0.4,0.7,0.5,1.3,0.5c0.1,0,0.2,0,0.3,0c0.1,0,0.2,0,0.3-0.1c0.1,0,0.2-0.1,0.3-0.2
		c0.1-0.1,0.1-0.2,0.1-0.4C306.8,168.8,306.8,168.7,306.8,168.7z"/>
	<path class="st6" d="M311.8,163.5c-0.1-0.1-0.2-0.1-0.4-0.1H310l0.2-1.3c0-0.2,0-0.4-0.1-0.5c-0.1-0.1-0.2-0.2-0.4-0.2
		c-0.2,0-0.3,0-0.4,0.1c-0.1,0.1-0.2,0.2-0.2,0.4l-0.2,1.4h-0.8c-0.2,0-0.3,0-0.4,0.1c-0.1,0.1-0.2,0.2-0.2,0.4c0,0.1,0,0.2,0.1,0.3
		c0.1,0.1,0.2,0.1,0.4,0.1h0.7l-0.5,3.1c-0.1,0.4-0.1,0.8,0.1,1.2c0.1,0.3,0.3,0.6,0.7,0.8c0.3,0.2,0.7,0.3,1.2,0.3
		c0.1,0,0.3,0,0.4,0c0.1,0,0.2-0.1,0.3-0.1c0.1,0,0.2-0.1,0.3-0.2c0.1-0.1,0.1-0.2,0.1-0.4c0-0.1,0-0.2-0.1-0.3
		c0-0.1-0.1-0.1-0.2-0.1c-0.1,0-0.2,0-0.2,0c-0.1,0-0.2,0-0.4,0c-0.4,0-0.6-0.1-0.8-0.3c-0.2-0.2-0.2-0.6-0.1-1.1l0.5-3h1.5
		c0.2,0,0.3-0.1,0.4-0.1c0.1-0.1,0.2-0.2,0.2-0.4C311.9,163.7,311.9,163.6,311.8,163.5z"/>
	<path class="st6" d="M314,163.5c-0.1-0.1-0.2-0.2-0.4-0.2c-0.2,0-0.3,0-0.4,0.1c-0.1,0.1-0.2,0.2-0.2,0.4l-0.8,5
		c0,0.2,0,0.4,0.1,0.5c0.1,0.1,0.2,0.2,0.4,0.2c0.2,0,0.3,0,0.4-0.1c0.1-0.1,0.2-0.2,0.2-0.4l0.8-5
		C314.2,163.8,314.1,163.7,314,163.5z M314.6,160.9c-0.1-0.1-0.3-0.2-0.5-0.2c-0.2,0-0.4,0.1-0.6,0.2c-0.1,0.1-0.2,0.3-0.2,0.5
		c0,0.2,0,0.3,0.2,0.4c0.1,0.1,0.3,0.2,0.5,0.2c0.3,0,0.5-0.1,0.6-0.2c0.1-0.1,0.2-0.3,0.2-0.5C314.7,161.1,314.7,161,314.6,160.9z"
		/>
	<path class="st6" d="M320.9,164.4c-0.1-0.4-0.3-0.6-0.6-0.8c-0.3-0.2-0.7-0.3-1.1-0.3c-0.6,0-1,0.1-1.4,0.4
		c-0.3,0.2-0.6,0.5-0.8,0.8l0.1-0.5c0-0.2,0-0.4-0.1-0.5c-0.1-0.1-0.2-0.2-0.4-0.2c-0.2,0-0.3,0-0.4,0.1c-0.1,0.1-0.2,0.2-0.2,0.4
		l-0.8,5c0,0.2,0,0.4,0.1,0.5c0.1,0.1,0.2,0.2,0.4,0.2c0.4,0,0.6-0.2,0.6-0.6l0.4-2.8c0.1-0.6,0.3-1.1,0.7-1.4
		c0.3-0.4,0.8-0.5,1.4-0.5c0.4,0,0.8,0.1,0.9,0.4c0.2,0.3,0.2,0.7,0.1,1.2l-0.5,3.1c0,0.2,0,0.4,0.1,0.5c0.1,0.1,0.2,0.2,0.4,0.2
		c0.2,0,0.3,0,0.5-0.1c0.1-0.1,0.2-0.2,0.2-0.4l0.5-3.2C321.1,165.3,321,164.8,320.9,164.4z"/>
	<path class="st6" d="M328.5,163.5c-0.1-0.1-0.2-0.2-0.4-0.2c-0.2,0-0.3,0-0.4,0.1c-0.1,0.1-0.2,0.2-0.2,0.4l-0.1,0.7
		c-0.2-0.4-0.4-0.7-0.7-0.9c-0.4-0.2-0.8-0.4-1.3-0.4c-0.5,0-0.9,0.1-1.3,0.3c-0.4,0.2-0.7,0.5-1,0.8c-0.3,0.3-0.5,0.7-0.6,1.1
		c-0.1,0.4-0.2,0.9-0.2,1.3c0,0.5,0.1,1,0.3,1.3c0.2,0.4,0.5,0.7,0.8,0.9c0.4,0.2,0.8,0.3,1.3,0.3c0.5,0,1-0.1,1.3-0.4
		c0.3-0.2,0.6-0.4,0.7-0.7l-0.2,1.1c-0.1,0.6-0.3,1-0.6,1.2c-0.3,0.3-0.8,0.4-1.3,0.4c-0.4,0-0.7,0-1-0.2c-0.3-0.1-0.6-0.2-0.9-0.4
		c-0.1-0.1-0.2-0.1-0.3-0.1c-0.1,0-0.2,0.1-0.2,0.1c-0.1,0.1-0.1,0.1-0.1,0.2c0,0.1,0,0.2,0,0.3c0,0.1,0.1,0.2,0.2,0.2
		c0.3,0.2,0.7,0.4,1.1,0.5c0.4,0.1,0.9,0.2,1.4,0.2c0.8,0,1.5-0.2,2-0.6c0.5-0.4,0.8-1.1,0.9-1.9l0.8-5.3
		C328.6,163.8,328.6,163.7,328.5,163.5z M326.8,167.1c-0.2,0.4-0.4,0.7-0.7,1c-0.3,0.2-0.7,0.4-1.1,0.4c-0.5,0-0.9-0.1-1.2-0.4
		c-0.3-0.3-0.4-0.7-0.4-1.2c0-0.5,0.1-0.9,0.2-1.3c0.2-0.4,0.4-0.7,0.7-1c0.3-0.2,0.7-0.4,1.1-0.4c0.5,0,0.9,0.1,1.2,0.4
		c0.3,0.3,0.4,0.7,0.4,1.2C327.1,166.3,327,166.7,326.8,167.1z"/>
</g>
<path class="st8" d="M331,134.7c0-3.4-0.7-6.5-2.2-9.3c-1.5-2.7-3.6-4.9-6.4-6.4c-2.7-1.6-5.9-2.3-9.5-2.3c-3.7,0-6.9,0.8-9.7,2.4
	c-2.8,1.6-5,3.9-6.6,6.8c-0.4,0.8-0.8,1.6-1.1,2.4c-0.6,1.6-0.9,3.3-1.1,5.1c-0.1,0.9-0.1,1.8-0.1,2.7c0,3.9,0.8,7.3,2.4,10.3
	c1.6,3,3.8,5.2,6.6,6.8c2.8,1.6,6,2.4,9.6,2.4c4.5,0,8.3-1.1,11.3-3.4c3-2.3,5-5.2,6.1-8.9h-6.8c-0.7,2.1-2,3.8-3.8,5.1
	c-1.8,1.3-4.1,1.9-6.8,1.9c-3.3,0-6.1-1-8.4-3.1c-2.3-2.1-3.6-5-3.8-8.7h30.2C330.9,137.2,331,135.9,331,134.7z M300.7,133.4
	c0.2-1.9,0.6-3.7,1.4-5.1c0.6-1.3,1.4-2.3,2.5-3.3c2.2-2,4.9-3,8.1-3c2.2,0,4.2,0.5,6,1.3c1.8,0.9,3.2,2.2,4.3,3.9
	c0.2,0.3,0.4,0.7,0.5,1c0.7,1.5,1.1,3.2,1.1,5.1H300.7z"/>
<path class="st8" d="M41.6,112.1h20.9V107H35.3v48h6.3v-21.6h16.9v-5.1H41.6V112.1z"/>
<path class="st8" d="M76.2,103.8c-0.8-0.8-1.8-1.2-2.9-1.2c-1.2,0-2.2,0.4-3,1.2c-0.8,0.8-1.2,1.8-1.2,3s0.4,2.2,1.2,3
	c0.8,0.8,1.8,1.2,3,1.2c1.1,0,2.1-0.4,2.9-1.2c0.8-0.8,1.2-1.8,1.2-3S77,104.7,76.2,103.8z M70,117.3V155h6.3v-37.7H70z"/>
<path class="st8" d="M120.4,128.3c-0.6-3.1-1.9-5.6-3.9-7.5c-2.8-2.8-6.6-4.2-11.2-4.2c-2.6,0-4.9,0.5-7,1.6
	c-2.1,1.1-3.8,2.5-5.1,4.5v-5.4h-6.3V155h6.3v-20.9c0-0.3,0-0.5,0-0.8c0.1-2,0.4-3.7,1-5.1c0.5-1.2,1.1-2.3,1.9-3.1
	c2-2.1,4.6-3.1,7.9-3.1c3.3,0,5.8,1,7.7,3c0.8,0.9,1.5,2,2,3.2c0.6,1.5,0.8,3.2,0.9,5.1c0,0.1,0,0.2,0,0.3V155h6.2v-22.3
	C120.8,131.2,120.6,129.6,120.4,128.3z"/>
<path class="st8" d="M174.5,133.4c-0.2-1.8-0.6-3.6-1.1-5.1c-0.3-0.8-0.7-1.6-1.1-2.4c-1.6-2.9-3.7-5.2-6.4-6.8
	c-2.7-1.6-5.8-2.4-9.1-2.4c-3.3,0-6.1,0.7-8.6,2.2c-2.5,1.4-4.3,3.2-5.5,5.4v-7h-6.3v55.7h6.3v-24.9c1.3,2.2,3.2,4,5.6,5.4
	c2.5,1.4,5.3,2.2,8.5,2.2c3.4,0,6.4-0.8,9.1-2.5c2.7-1.7,4.9-4,6.4-7c1.6-3,2.3-6.4,2.3-10.2C174.7,135.1,174.6,134.2,174.5,133.4z
	 M166.5,143.6c-1.1,2.1-2.7,3.8-4.6,4.9c-2,1.1-4.1,1.7-6.4,1.7c-2.3,0-4.4-0.6-6.4-1.7c-2-1.1-3.5-2.7-4.7-4.9
	c-1.2-2.1-1.8-4.6-1.8-7.5c0-0.9,0.1-1.8,0.2-2.7c0.3-1.7,0.8-3.3,1.6-4.7l0.2-0.4c1.1-1.9,2.6-3.4,4.4-4.5c1.9-1.1,4.1-1.7,6.4-1.7
	c2.3,0,4.5,0.5,6.4,1.6c1.8,1,3.3,2.5,4.5,4.5c0.1,0.1,0.1,0.2,0.2,0.3c0.8,1.4,1.3,3,1.5,4.8c0.1,0.8,0.2,1.7,0.2,2.6
	C168.3,138.9,167.7,141.4,166.5,143.6z"/>
<path class="st8" d="M193.9,118.4c-2,1.2-3.6,2.9-4.7,5v-6.1h-6.3V155h6.3v-20.5c0-0.4,0-0.7,0-1.1c0.1-2,0.5-3.7,1.1-5.1
	c1.5-3.5,4.7-5.2,9.4-5.2h1.7v-6.5C198.5,116.6,196,117.2,193.9,118.4z"/>
<path class="st8" d="M214.8,103.8c-0.8-0.8-1.8-1.2-2.9-1.2c-1.2,0-2.2,0.4-3,1.2c-0.8,0.8-1.2,1.8-1.2,3s0.4,2.2,1.2,3
	c0.8,0.8,1.8,1.2,3,1.2c1.1,0,2.1-0.4,2.9-1.2c0.8-0.8,1.2-1.8,1.2-3S215.6,104.7,214.8,103.8z M208.6,117.3V155h6.3v-37.7H208.6z"
	/>
<path class="st8" d="M285.8,128.3c-0.3-1.6-0.9-3.1-1.6-4.4c-1.3-2.4-3.1-4.3-5.4-5.5c-2.3-1.2-4.9-1.8-7.9-1.8
	c-3,0-5.7,0.7-8.1,2.2c-2.4,1.5-4.2,3.5-5.2,6.2c-1.2-2.8-3-4.8-5.5-6.3c-2.4-1.4-5.2-2.1-8.4-2.1c-2.5,0-4.8,0.5-6.9,1.6
	c-2.1,1.1-3.8,2.6-5,4.5v-5.4h-6.3V155h6.3v-20.8c0-0.3,0-0.6,0-0.8c0.1-2,0.4-3.7,1-5.1c0.5-1.2,1.1-2.2,1.9-3.1
	c1.9-2.1,4.5-3.1,7.8-3.1c3.2,0,5.7,1,7.5,3c0.8,0.9,1.5,2,1.9,3.2c0.6,1.5,0.8,3.2,0.9,5.1c0,0.1,0,0.2,0,0.3V155h6.2v-20.8
	c0-0.3,0-0.6,0-0.8c0.1-2,0.4-3.7,1-5.1c0.5-1.2,1.1-2.2,1.9-3.1c1.9-2.1,4.5-3.1,7.8-3.1c3.2,0,5.7,1,7.5,3c0.8,0.9,1.5,2,1.9,3.2
	c0.6,1.5,0.8,3.2,0.9,5.1c0,0.1,0,0.2,0,0.3V155h6.2v-22.3C286.3,131.2,286.1,129.6,285.8,128.3z"/>
<polygon class="st6" points="41.7,128.3 58.7,128.3 58.7,133.4 35.3,133.4 35.3,128.2 41.7,128.2 "/>
<rect x="70" y="128.4" class="st6" width="6.3" height="5.1"/>
<path class="st6" d="M86.9,128.4h7.3c-0.6,1.5-0.9,3.2-1,5.1h-6.3V128.4z"/>
<path class="st6" d="M120.4,128.3c0.3,1.4,0.4,2.9,0.4,4.5v0.6h-6.2c0-2-0.3-3.7-0.9-5.1H120.4z"/>
<path class="st6" d="M136.4,128.3h8.3l-0.2,0.4c-0.8,1.4-1.3,3-1.6,4.7h-6.5V128.3z"/>
<path class="st6" d="M173.4,128.3c0.6,1.6,1,3.3,1.1,5.1h-6.5c-0.2-1.8-0.8-3.4-1.5-4.8c-0.1-0.1-0.1-0.2-0.2-0.3H173.4z"/>
<path class="st6" d="M182.9,128.4h7.4c-0.7,1.4-1,3.1-1.1,5.1h-6.3V128.4z"/>
<rect x="208.7" y="128.4" class="st6" width="6.3" height="5.1"/>
<path class="st6" d="M225.6,128.3h7.3c-0.6,1.5-0.9,3.2-1,5.1h-6.3V128.3z"/>
<path class="st6" d="M252,128.4h8.1c-0.6,1.5-0.9,3.2-1,5.1h-6.2C252.9,131.6,252.6,129.9,252,128.4z"/>
<path class="st6" d="M285.9,128.5c0.3,1.4,0.4,2.9,0.4,4.5v0.6h-6.2c0-2-0.3-3.7-0.9-5.1H285.9z"/>
<path class="st6" d="M295.4,128.3h6.6c-0.7,1.5-1.2,3.2-1.4,5.1h-6.3C294.5,131.6,294.9,129.9,295.4,128.3z"/>
<path class="st6" d="M329.7,128.3l-6.3-0.3c0.8,1.6,1.2,3.4,1.1,5.3l6.5,0.3l-0.1-0.8L329.7,128.3z"/>
<ellipse class="st6" cx="72.9" cy="106.8" rx="1.3" ry="1.1"/>
<ellipse class="st6" cx="211.8" cy="106.8" rx="1.3" ry="1.1"/>
<rect x="142.6" y="35.4" class="st8" width="5.3" height="0.7"/>
<path class="st6" d="M329.7,128.3l0.3,0c0,0,1.1,3.4,0.9,5s-1.6-4.3-1.6-4.3"/>
</svg>
